<?xml version="1.0" standalone="no"?>
<!DOCTYPE svg PUBLIC "-//W3C//DTD SVG 20010904//EN"
 "http://www.w3.org/TR/2001/REC-SVG-20010904/DTD/svg10.dtd">
<svg version="1.0" xmlns="http://www.w3.org/2000/svg"
 width="1600.000000pt" height="960.000000pt" viewBox="0 0 1600.000000 960.000000"
 preserveAspectRatio="xMidYMid meet">
<metadata>
Created by potrace 1.16, written by Peter Selinger 2001-2019
</metadata>
<g transform="translate(0.000000,960.000000) scale(0.100000,-0.100000)"
fill="#000000" stroke="none">
<path d="M0 4800 l0 -4800 8000 0 8000 0 0 4800 0 4800 -8000 0 -8000 0 0
-4800z m7509 995 c30 -15 57 -67 681 -1300 117 -231 237 -466 266 -523 30 -56
54 -107 54 -112 0 -6 -111 -10 -292 -10 -318 0 -354 5 -448 56 -101 55 -127
94 -380 588 -329 643 -311 604 -311 670 0 64 0 66 166 386 59 115 119 217 136
233 34 31 83 36 128 12z m1068 -5 c26 -16 56 -68 174 -302 78 -156 170 -337
204 -403 34 -66 189 -371 344 -677 l282 -558 -299 0 c-272 0 -306 2 -365 20
-78 24 -174 92 -214 152 -17 24 -103 187 -193 363 -89 176 -209 411 -266 522
-140 271 -140 243 7 531 157 307 176 340 207 357 38 20 81 18 119 -5z m-1616
-881 c12 -6 86 -142 184 -340 147 -294 165 -336 165 -380 0 -128 -125 -272
-278 -319 -58 -18 -93 -20 -364 -20 l-299 0 261 518 c227 449 285 552 307 552
2 0 13 -5 24 -11z"/>
</g>
</svg>
